# Blender v2.78 (sub 0) OBJ File: 'radar.blend'
# www.blender.org
mtllib radar.mtl
o Cube
v 0.176098 0.727947 -2.148501
v 0.176098 0.718894 2.161315
v -0.176098 0.718894 2.161314
v -0.176098 0.727947 -2.148501
v 0.176098 0.958837 -0.494182
v 0.176098 0.956732 0.507983
v -0.176098 0.955742 0.040931
v -0.176098 0.955885 -0.027142
v 0.176098 0.723421 0.006407
v -0.176098 0.723421 0.006407
v 0.176098 0.725365 0.006900
v -0.176098 0.955813 0.006895
vt 0.3359 0.2289
vt 0.3359 0.0002
vt 0.0002 0.0002
vt 0.0002 0.2289
vt 0.3280 0.8417
vt 0.6637 0.8417
vt 0.6637 0.8453
vt 0.3280 0.8949
vt 0.6665 0.2289
vt 0.3363 0.2289
vt 0.3363 0.1757
vt 0.6665 0.0002
vt 0.3280 0.7881
vt 0.3280 0.4580
vt 0.6637 0.4608
vt 0.6637 0.7881
vt 0.3276 0.6867
vt 0.0002 0.6867
vt 0.0002 0.6903
vt 0.3276 0.9154
vt 0.6641 0.4580
vt 0.6641 0.7881
vt 0.9998 0.7881
vt 0.9998 0.4608
vt 0.3276 0.4580
vt 0.0002 0.6831
vt 0.6665 0.4576
vt 0.3363 0.2821
vt 0.3280 0.7885
vt 0.6637 0.8381
vt 0.3359 0.4576
vt 0.0002 0.4576
vn 0.0000 -1.0000 -0.0021
vn 0.4900 0.8002 -0.3459
vn 1.0000 0.0000 -0.0000
vn -0.0839 0.9887 0.1244
vn -1.0000 -0.0000 -0.0000
vn -0.0838 0.9892 -0.1202
vn 0.4894 0.7993 0.3488
usemtl Material
s off
f 9/1/1 2/2/1 3/3/1 10/4/1
f 11/5/2 12/6/2 7/7/2 6/8/2
f 9/9/3 11/10/3 6/11/3 2/12/3
f 2/13/4 6/14/4 7/15/4 3/16/4
f 10/17/5 12/18/5 8/19/5 4/20/5
f 5/21/6 1/22/6 4/23/6 8/24/6
f 3/25/5 7/26/5 12/18/5 10/17/5
f 1/27/3 5/28/3 11/10/3 9/9/3
f 5/29/7 8/30/7 12/6/7 11/5/7
f 1/31/1 9/1/1 10/4/1 4/32/1
